<?xml version="1.0" encoding="UTF-8"?>
<svg xmlns="http://www.w3.org/2000/svg" xmlns:xlink="http://www.w3.org/1999/xlink" width="48pt" height="48pt" viewBox="0 0 48 48" version="1.1">
<g id="surface1">
<path style=" stroke:none;fill-rule:nonzero;fill:rgb(0%,0%,0%);fill-opacity:1;" d="M 24 3.429688 C 27.730469 3.429688 31.175781 4.347656 34.324219 6.1875 C 37.476562 8.027344 39.972656 10.523438 41.8125 13.675781 C 43.652344 16.824219 44.570312 20.269531 44.570312 24 C 44.570312 28.480469 43.261719 32.511719 40.648438 36.09375 C 38.03125 39.675781 34.652344 42.152344 30.507812 43.527344 C 30.027344 43.617188 29.667969 43.554688 29.4375 43.339844 C 29.207031 43.125 29.089844 42.855469 29.089844 42.535156 C 29.089844 42.480469 29.09375 41.800781 29.101562 40.488281 C 29.113281 39.175781 29.117188 37.972656 29.117188 36.882812 C 29.117188 35.152344 28.652344 33.882812 27.722656 33.082031 C 28.742188 32.972656 29.65625 32.8125 30.46875 32.597656 C 31.28125 32.382812 32.121094 32.035156 32.988281 31.554688 C 33.851562 31.070312 34.574219 30.476562 35.15625 29.773438 C 35.738281 29.066406 36.210938 28.128906 36.574219 26.960938 C 36.941406 25.789062 37.125 24.445312 37.125 22.929688 C 37.125 20.804688 36.417969 18.964844 35.007812 17.410156 C 35.667969 15.785156 35.597656 13.964844 34.792969 11.945312 C 34.292969 11.785156 33.570312 11.882812 32.625 12.242188 C 31.679688 12.597656 30.855469 12.992188 30.160156 13.417969 L 29.144531 14.0625 C 27.480469 13.597656 25.769531 13.367188 24 13.367188 C 22.230469 13.367188 20.519531 13.597656 18.855469 14.0625 C 18.570312 13.867188 18.191406 13.625 17.71875 13.339844 C 17.246094 13.054688 16.5 12.710938 15.480469 12.308594 C 14.464844 11.90625 13.707031 11.785156 13.207031 11.945312 C 12.402344 13.964844 12.332031 15.785156 12.992188 17.410156 C 11.582031 18.964844 10.875 20.804688 10.875 22.929688 C 10.875 24.445312 11.058594 25.785156 11.425781 26.945312 C 11.789062 28.105469 12.257812 29.042969 12.832031 29.757812 C 13.402344 30.472656 14.121094 31.070312 14.988281 31.554688 C 15.851562 32.035156 16.691406 32.382812 17.503906 32.597656 C 18.316406 32.8125 19.230469 32.972656 20.25 33.082031 C 19.554688 33.722656 19.117188 34.644531 18.9375 35.839844 C 18.5625 36.019531 18.160156 36.152344 17.730469 36.242188 C 17.304688 36.332031 16.792969 36.375 16.207031 36.375 C 15.617188 36.375 15.03125 36.183594 14.449219 35.800781 C 13.871094 35.414062 13.375 34.855469 12.964844 34.125 C 12.625 33.554688 12.191406 33.089844 11.664062 32.730469 C 11.136719 32.375 10.695312 32.160156 10.339844 32.089844 L 9.804688 32.007812 C 9.429688 32.007812 9.167969 32.050781 9.027344 32.128906 C 8.882812 32.210938 8.839844 32.3125 8.894531 32.4375 C 8.945312 32.5625 9.027344 32.6875 9.132812 32.8125 C 9.242188 32.9375 9.355469 33.042969 9.480469 33.132812 L 9.667969 33.269531 C 10.0625 33.445312 10.449219 33.785156 10.835938 34.285156 C 11.21875 34.785156 11.5 35.242188 11.679688 35.652344 L 11.945312 36.269531 C 12.179688 36.945312 12.570312 37.496094 13.125 37.914062 C 13.679688 38.335938 14.277344 38.601562 14.917969 38.71875 C 15.5625 38.835938 16.183594 38.898438 16.78125 38.90625 C 17.378906 38.914062 17.875 38.882812 18.269531 38.8125 L 18.882812 38.707031 C 18.882812 39.382812 18.886719 40.175781 18.898438 41.074219 C 18.90625 41.976562 18.910156 42.464844 18.910156 42.535156 C 18.910156 42.855469 18.792969 43.125 18.5625 43.339844 C 18.332031 43.554688 17.972656 43.617188 17.492188 43.527344 C 13.347656 42.152344 9.96875 39.675781 7.351562 36.09375 C 4.738281 32.511719 3.429688 28.480469 3.429688 24 C 3.429688 20.269531 4.347656 16.824219 6.1875 13.675781 C 8.027344 10.523438 10.523438 8.027344 13.675781 6.1875 C 16.824219 4.347656 20.269531 3.429688 24 3.429688 Z M 11.222656 32.972656 C 11.277344 32.847656 11.214844 32.742188 11.035156 32.652344 C 10.855469 32.597656 10.742188 32.617188 10.6875 32.707031 C 10.632812 32.832031 10.695312 32.9375 10.875 33.027344 C 11.035156 33.132812 11.152344 33.117188 11.222656 32.972656 Z M 12.054688 33.882812 C 12.179688 33.792969 12.160156 33.652344 12 33.457031 C 11.820312 33.292969 11.679688 33.269531 11.570312 33.375 C 11.445312 33.464844 11.464844 33.605469 11.625 33.804688 C 11.804688 33.980469 11.945312 34.007812 12.054688 33.882812 Z M 12.855469 35.089844 C 13.019531 34.964844 13.019531 34.792969 12.855469 34.582031 C 12.714844 34.347656 12.5625 34.292969 12.402344 34.417969 C 12.242188 34.507812 12.242188 34.667969 12.402344 34.902344 C 12.5625 35.132812 12.714844 35.195312 12.855469 35.089844 Z M 13.980469 36.214844 C 14.125 36.070312 14.089844 35.902344 13.875 35.707031 C 13.660156 35.492188 13.480469 35.464844 13.339844 35.625 C 13.179688 35.769531 13.214844 35.9375 13.445312 36.132812 C 13.660156 36.347656 13.839844 36.375 13.980469 36.214844 Z M 15.507812 36.882812 C 15.5625 36.6875 15.445312 36.542969 15.160156 36.457031 C 14.894531 36.382812 14.722656 36.445312 14.652344 36.644531 C 14.582031 36.839844 14.695312 36.972656 15 37.042969 C 15.269531 37.152344 15.4375 37.097656 15.507812 36.882812 Z M 17.195312 37.019531 C 17.195312 36.785156 17.042969 36.6875 16.742188 36.722656 C 16.457031 36.722656 16.3125 36.820312 16.3125 37.019531 C 16.3125 37.25 16.464844 37.347656 16.769531 37.3125 C 17.054688 37.3125 17.195312 37.214844 17.195312 37.019531 Z M 18.75 36.75 C 18.714844 36.554688 18.554688 36.472656 18.269531 36.507812 C 17.980469 36.5625 17.855469 36.695312 17.894531 36.910156 C 17.929688 37.125 18.089844 37.195312 18.375 37.125 C 18.660156 37.054688 18.785156 36.929688 18.75 36.75 Z M 18.75 36.75 "/>
</g>
</svg>
