<?xml version="1.0" encoding="UTF-8"?>
<svg xmlns="http://www.w3.org/2000/svg" xmlns:xlink="http://www.w3.org/1999/xlink" width="47pt" height="48pt" viewBox="0 0 47 48" version="1.1">
<defs>
<linearGradient id="linear0" gradientUnits="userSpaceOnUse" x1="26.6" y1="20.6" x2="135.7" y2="114.4" gradientTransform="matrix(0.22218,0,0,0.227188,-5.92042,-4.6808)">
<stop offset="0" style="stop-color:rgb(35.294118%,62.352941%,83.137255%);stop-opacity:1;"/>
<stop offset="1" style="stop-color:rgb(18.823529%,41.176471%,59.607843%);stop-opacity:1;"/>
</linearGradient>
<linearGradient id="linear1" gradientUnits="userSpaceOnUse" x1="151" y1="192.4" x2="112" y2="137.3" gradientTransform="matrix(0.22218,0,0,0.227188,-5.92042,-4.6808)">
<stop offset="0" style="stop-color:rgb(100%,83.137255%,23.137255%);stop-opacity:1;"/>
<stop offset="1" style="stop-color:rgb(100%,90.980392%,45.098039%);stop-opacity:1;"/>
</linearGradient>
</defs>
<g id="surface1">
<path style=" stroke:none;fill-rule:nonzero;fill:url(#linear0);" d="M 21.6875 0 C 19.871094 0 18.132812 0.160156 16.632812 0.402344 C 12.167969 1.203125 11.339844 2.921875 11.339844 6 L 11.339844 10.082031 L 21.882812 10.082031 L 21.882812 11.441406 L 7.429688 11.441406 C 4.269531 11.441406 1.625 13.320312 0.792969 16.882812 C -0.234375 21.042969 -0.234375 23.519531 0.792969 27.839844 C 1.582031 30.960938 3.28125 33.242188 6.324219 33.242188 L 10.035156 33.242188 L 10.035156 28.320312 C 10.035156 24.800781 13.039062 21.679688 16.632812 21.679688 L 27.214844 21.679688 C 30.179688 21.679688 32.546875 19.203125 32.546875 16.242188 L 32.546875 6 C 32.546875 3.121094 30.101562 0.921875 27.214844 0.402344 C 25.398438 0.121094 23.503906 0 21.6875 0 Z M 15.960938 3.28125 C 17.066406 3.28125 17.933594 4.203125 17.933594 5.28125 C 17.933594 6.480469 17.066406 7.359375 15.960938 7.359375 C 14.855469 7.359375 13.984375 6.480469 13.984375 5.359375 C 13.984375 4.160156 14.855469 3.28125 15.960938 3.28125 Z M 15.960938 3.28125 "/>
<path style=" stroke:none;fill-rule:nonzero;fill:url(#linear1);" d="M 33.8125 11.441406 L 33.8125 16.242188 C 33.8125 19.921875 30.730469 23.042969 27.214844 23.042969 L 16.632812 23.042969 C 13.75 23.042969 11.339844 25.519531 11.339844 28.480469 L 11.339844 38.640625 C 11.339844 41.601562 13.828125 43.320312 16.632812 44.121094 C 19.988281 45.121094 23.1875 45.320312 27.214844 44.121094 C 29.863281 43.320312 32.507812 41.800781 32.507812 38.679688 L 32.507812 34.640625 L 21.882812 34.640625 L 21.882812 33.242188 L 37.800781 33.242188 C 40.882812 33.242188 42.027344 31.082031 43.09375 27.800781 C 44.199219 24.320312 44.160156 21.082031 43.09375 16.761719 C 42.304688 13.679688 40.882812 11.359375 37.800781 11.359375 L 33.851562 11.359375 Z M 27.886719 37.320312 C 28.953125 37.320312 29.863281 38.242188 29.863281 39.320312 C 29.863281 40.519531 28.953125 41.402344 27.886719 41.402344 C 26.78125 41.402344 25.914062 40.359375 25.914062 39.242188 C 25.914062 38.121094 26.78125 37.242188 27.886719 37.242188 Z M 27.886719 37.320312 "/>
</g>
</svg>
