<?xml version="1.0" encoding="UTF-8"?>
<svg xmlns="http://www.w3.org/2000/svg" xmlns:xlink="http://www.w3.org/1999/xlink" width="48pt" height="48pt" viewBox="0 0 48 48" version="1.1">
<g id="surface1">
<path style=" stroke:none;fill-rule:nonzero;fill:rgb(0%,0%,0%);fill-opacity:1;" d="M 45.105469 10.929688 C 43.910156 12.679688 42.464844 14.167969 40.769531 15.402344 C 40.785156 15.652344 40.792969 16.027344 40.792969 16.527344 C 40.792969 18.847656 40.457031 21.164062 39.777344 23.476562 C 39.097656 25.789062 38.066406 28.007812 36.683594 30.132812 C 35.300781 32.257812 33.652344 34.136719 31.742188 35.773438 C 29.832031 37.40625 27.527344 38.710938 24.832031 39.683594 C 22.132812 40.65625 19.25 41.144531 16.179688 41.144531 C 11.339844 41.144531 6.910156 39.847656 2.894531 37.257812 C 3.519531 37.332031 4.214844 37.367188 4.980469 37.367188 C 9 37.367188 12.582031 36.132812 15.722656 33.667969 C 13.847656 33.632812 12.167969 33.058594 10.6875 31.941406 C 9.207031 30.824219 8.1875 29.402344 7.632812 27.667969 C 8.222656 27.757812 8.769531 27.804688 9.269531 27.804688 C 10.035156 27.804688 10.792969 27.707031 11.542969 27.507812 C 9.542969 27.097656 7.886719 26.101562 6.574219 24.523438 C 5.261719 22.941406 4.605469 21.105469 4.605469 19.019531 L 4.605469 18.910156 C 5.820312 19.589844 7.125 19.957031 8.519531 20.007812 C 7.339844 19.222656 6.402344 18.195312 5.707031 16.929688 C 5.007812 15.660156 4.660156 14.285156 4.660156 12.804688 C 4.660156 11.230469 5.054688 9.777344 5.839844 8.4375 C 8 11.097656 10.628906 13.226562 13.726562 14.824219 C 16.824219 16.425781 20.144531 17.3125 23.679688 17.492188 C 23.535156 16.8125 23.464844 16.152344 23.464844 15.507812 C 23.464844 13.117188 24.308594 11.074219 25.996094 9.386719 C 27.683594 7.699219 29.722656 6.855469 32.117188 6.855469 C 34.617188 6.855469 36.722656 7.769531 38.4375 9.589844 C 40.382812 9.214844 42.214844 8.519531 43.929688 7.5 C 43.269531 9.554688 42 11.144531 40.125 12.269531 C 41.785156 12.089844 43.445312 11.644531 45.105469 10.929688 Z M 45.105469 10.929688 "/>
</g>
</svg>
